<svg width="196" xmlns="http://www.w3.org/2000/svg" height="196" fill="none">
  <g data-testid="Cyberpunk breach protocol" style="fill:#000">
    <path
      d="M53 83h5a14 14 0 0 0 0 2l1 3 2 3 4 1h31v-9h4v9h31l4-1 2-3 1-3a14 14 0 0 0 0-2h5a16 16 0 0 1 0 2l-1 5-4 4c-2 2-4 3-7 3h-31v6h-4v-6H65c-3 0-5-1-7-3l-4-4-1-5a18 18 0 0 1 0-2Z"
      fill-rule="evenodd" clip-rule="evenodd" style="fill:#ff6d67" class="fills"
      data-testid="svg-path" />
    <path d="M55 108c0-3 3-5 5-5h76c2 0 5 2 5 5v27c0 2-3 5-5 5H60c-2 0-5-3-5-5v-27Z"
      style="fill:#ff6d67" class="fills" data-testid="svg-path" />
    <g data-testid="svg-path" fill="none">
      <path
        d="M96 6a5 5 0 0 1 4 0l80 44c2 1 3 2 3 4v88c0 2-1 3-3 4l-80 44a5 5 0 0 1-4 0l-80-44c-2-1-3-2-3-4V54c0-2 1-3 3-4L96 6Z"
        style="fill:none" class="fills" />
      <g class="strokes">
        <path
          d="M96 6a5 5 0 0 1 4 0l80 44c2 1 3 2 3 4v88c0 2-1 3-3 4l-80 44a5 5 0 0 1-4 0l-80-44c-2-1-3-2-3-4V54c0-2 1-3 3-4L96 6Z"
          style="fill:none;stroke-width:9;stroke:#ff6d67;stroke-opacity:1" class="stroke-shape" />
      </g>
    </g>
    <path d="M79 67c0-2 2-4 5-4h28c3 0 5 2 5 4v14c0 2-2 4-5 4H84c-3 0-5-2-5-4V67Z"
      style="fill:#ff6d67" class="fills" data-testid="svg-path" />
    <path
      d="M124 67c0-3 3-6 7-6h29c3 0 7 3 7 6v14c0 4-4 7-7 7h-29c-4 0-7-3-7-7V67Zm7-2-2 2v14l2 2h29l2-2V67l-2-2h-29Zm-54 2c0-3 3-6 7-6h28c4 0 7 3 7 6v14c0 4-3 7-7 7H84c-4 0-7-3-7-7V67Zm7-2c-2 0-3 1-3 2v14c0 1 1 2 3 2h28l3-2V67l-3-2H84Zm-55 2c0-3 4-6 7-6h29c4 0 7 3 7 6v14c0 4-3 7-7 7H36c-3 0-7-3-7-7V67Zm7-2-2 2v14l2 2h29l2-2V67l-2-2H36Z"
      fill-rule="evenodd" clip-rule="evenodd" style="fill:#ff6d67" class="fills"
      data-testid="svg-path" />
  </g>
</svg>

